<svg xmlns="http://www.w3.org/2000/svg" version="1.1" xmlns:xlink="http://www.w3.org/1999/xlink" xmlns:svgjs="http://svgjs.com/svgjs" width="1440" height="560" preserveAspectRatio="none" viewBox="0 0 1440 560">
    <g mask="url(&quot;#SvgjsMask7916&quot;)" fill="none">
        <use xlink:href="#SvgjsG7926" transform="translate(0, 0)" fill="rgba(195, 195, 195, 0.55)"></use>
        <use xlink:href="#SvgjsG7926" transform="translate(780, 0)" fill="rgba(195, 195, 195, 0.55)"></use>
    </g>
    <defs>
        <mask id="SvgjsMask7916">
            <rect width="1440" height="560" fill="#ffffff"></rect>
        </mask>
        <g id="SvgjsG7917">
            <path d="M3.8 4.43L2.09 2.59 3.06 1.69l1.71 1.83-0.97 0.91zM7.54 2.49L7.63-0.02l1.32 0.05-0.09 2.5-1.32-0.04z m-4.98 4.65l-0.05 1.32-2.51-0.09 0.05-1.32 2.51 0.09z m9.9-2.41l-0.91-0.97L13.39 2.05l0.91 0.97-1.84 1.71z m-8.92 6.5l0.91 0.97-1.83 1.71-0.91-0.97 1.83-1.71zM13.47 8.84l0.03-1.34 2.52 0.11-0.05 1.32-2.5-0.09z m-4.97 4.63l-0.11 2.52-1.32-0.04 0.09-2.51 1.34 0.03z m5.45-0.1l-0.97 0.91-1.71-1.84L12.24 11.53l1.71 1.84z"></path>
            <path d="M5.08 4.85a4.18 4.18 0 1 0 5.71 6.12 4.18 4.18 0 1 0-5.71-6.12"></path>
        </g>
        <g id="SvgjsG7918">
            <path d="M15.79 11.62l-8.45 6.09L4.32 14.47 10.98 6.47l3.69 3.95L18.13 8.66 18.42 9.22l-3.3 1.68 0.67 0.72zM6.16 10.11s1.21-0.9-0.36-2.58L3.31 4.85c-1.56-1.68-2.55-0.53-2.55-0.53l5.4 5.79zM-1.3 6.23s-1.21 0.91 0.36 2.59l2.49 2.68c1.57 1.68 2.55 0.53 2.56 0.53L-1.3 6.23z m5.7 5.05a0.68 0.68 0 0 0 0.96 0.03c0.27-0.25 0.29-0.68 0.03-0.95L0.44 5.04C0.18 4.77-0.25 4.75-0.52 5.01a0.68 0.68 0 0 0-0.03 0.96l4.95 5.31z"></path>
        </g>
        <g id="SvgjsG7919">
            <path d="M9.82 5.95c-0.38 0.35-1.12 0.39-1.54-0.07l-6.48 6.04c-0.92 0.86-2.09-0.39-1.17-1.25L7.11 4.63c-0.41-0.44-0.43-1.14 0.08-1.62L10.75-0.31c0.31-0.29 0.74 0.15 0.41 0.46l-2.63 2.46 0.34 0.37L11.53 0.5c0.28-0.27 0.71 0.15 0.4 0.44l-2.65 2.47 0.35 0.39L12.29 1.32C12.59 1.04 13 1.45 12.67 1.75l-2.64 2.47 0.36 0.38L13.04 2.13c0.3-0.28 0.72 0.15 0.4 0.44l-3.62 3.38zM15.73 6.68l-10.06 9.39c-0.9 0.84-2.06-0.43-1.17-1.26L8.49 11.09l-0.62-0.67L13.94 4.76c1.41-1.32 3.21 0.61 1.79 1.92z"></path>
        </g>
        <g id="SvgjsG7920">
            <path d="M9.78 16L-0.48 4.99c-0.97 0.91-0.73 2.07-0.18 2.67l7.77 8.33c0.66 0.71 1.81 0.82 2.67 0.01zM15.58 7.57L8.09-0.46l-5.28 4.91c-0.71 0.67-0.7 1.81-0.08 2.48l4.86 5.21c0.7 0.75 1.81 0.68 2.46 0.07L10.49 11.8c1.39 1.49 3.51 1.52 4.8 0.31 1.33-1.24 1.43-3.31 0.29-4.54z m-1.17 3.59c-0.76 0.71-2 0.82-2.92-0.3L14.33 8.22l0.26 0.27 0 0c0.95 1.02 0.29 2.24-0.18 2.68l0-0.01z"></path>
        </g>
        <g id="SvgjsG7921">
            <path d="M13.51 8.4l-9.6 6.91L0.48 11.63 8.05 2.54l4.19 4.5L16.17 5.03 16.5 5.67l-3.75 1.91 0.76 0.82z" fill-rule="evenodd"></path>
        </g>
        <g id="SvgjsG7922">
            <path d="M14.22 6.86L9.59 1.91C6.7-1.2 4.87 0.91 4.87 0.91l10 10.73S17.12 9.97 14.22 6.86zM1.72 9.25l4.62 4.96c2.9 3.11 4.73 0.98 4.73 0.98L1.07 4.46s-2.24 1.68 0.65 4.79z m9.9 4.56a1.26 1.26 0 0 0 1.78 0.06c0.5-0.47 0.53-1.26 0.06-1.78L4.28 2.25C3.81 1.75 3.01 1.71 2.51 2.18a1.26 1.26 0 0 0-0.07 1.78l9.18 9.85z" fill-rule="evenodd"></path>
        </g>
        <g id="SvgjsG7923">
            <path d="M11.05-0.46s-3.19 3.29-0.17 5.97S13.99 3.23 11.05-0.46m-8.02 13.24a2.32 2.32 0 0 1-2.01-0.73c-0.44-0.47-0.64-1.13-0.63-1.73 0.1-1.28 0.88-3.53 0.88-3.53C1.77 5.46 2.26 4.54 2.99 3.86c1.55-1.45 4.08-1.45 5.53 0.11 0.72 0.77 1.05 1.75 1.03 2.72a3.83 3.83 0 0 1 2.64 1.22c1.45 1.56 1.28 4.07-0.28 5.52-0.73 0.68-1.68 1.11-3.04 1.51 0 0-2.31 0.62-3.58 0.63-0.6-0.02-1.24-0.27-1.68-0.74a2.32 2.32 0 0 1-0.58-2.05" fill-rule="evenodd"></path>
        </g>
        <g id="SvgjsG7924">
            <path d="M6.89 15.69L4.27 12.88l4.01-3.74L19.28 8.37 8.39-3.31l-1.41 10.99-4.04 3.77-2.58-2.76c-0.89-0.95-2.31 0.37-1.42 1.33L5.47 17.02c0.88 0.95 2.3-0.38 1.42-1.33zM10.35 5.84c0.5-0.47 1.28-0.44 1.75 0.06 0.47 0.5 0.44 1.28-0.07 1.75-0.5 0.47-1.28 0.44-1.74-0.06-0.47-0.5-0.44-1.28 0.06-1.75z"></path>
        </g>
        <g id="SvgjsG7925">
            <path d="M7.13 18.8c-0.22-0.23-0.37-0.51-0.47-0.8a2.16 2.16 0 0 0-0.48-0.81c-0.22-0.24-0.49-0.42-0.78-0.54-0.28-0.12-0.54-0.29-0.76-0.52-0.22-0.23-0.37-0.51-0.46-0.79a2.17 2.17 0 0 0-0.48-0.82c-0.22-0.24-0.49-0.42-0.78-0.53-0.28-0.12-0.54-0.29-0.76-0.53-0.22-0.23-0.37-0.51-0.47-0.79a2.17 2.17 0 0 0-0.48-0.82c-0.23-0.24-0.5-0.42-0.78-0.53a2.18 2.18 0 0 1-0.76-0.52c-0.22-0.23-0.37-0.51-0.47-0.8a2.17 2.17 0 0 0-0.47-0.81c-0.22-0.24-0.5-0.42-0.79-0.54C-2.34 8.54-2.6 8.37-2.82 8.13l1-0.93a2.15 2.15 0 0 0 0.76 0.52 2.23 2.23 0 0 1 0.78 0.54c0.22 0.24 0.38 0.52 0.48 0.82a2.16 2.16 0 0 0 0.47 0.79c0.22 0.23 0.48 0.41 0.75 0.52a2.22 2.22 0 0 1 0.78 0.54c0.22 0.24 0.38 0.52 0.49 0.81a2.15 2.15 0 0 0 0.46 0.79c0.22 0.23 0.48 0.41 0.76 0.53a2.22 2.22 0 0 1 0.78 0.53c0.23 0.24 0.38 0.52 0.48 0.82 0.09 0.28 0.25 0.56 0.47 0.79 0.22 0.23 0.48 0.41 0.76 0.52a2.22 2.22 0 0 1 0.78 0.54c0.23 0.24 0.38 0.52 0.48 0.81a2.16 2.16 0 0 0 0.47 0.8L7.13 18.8zM13.6 5.83c0.83 2.57 0.57 6.78-2.38 9.01L7.84 11.21 13.6 5.83zM9.96 14.58l-7.53-8.08-1.48 1.38c0.06 0.11 0.12 0.23 0.15 0.35 0.1 0.28 0.25 0.56 0.47 0.79 0.22 0.23 0.48 0.41 0.76 0.53a2.17 2.17 0 0 1 0.78 0.53c0.22 0.24 0.38 0.52 0.48 0.82 0.1 0.28 0.25 0.56 0.47 0.79 0.22 0.23 0.48 0.41 0.76 0.52a2.18 2.18 0 0 1 0.78 0.54c0.23 0.24 0.38 0.52 0.48 0.82 0.1 0.28 0.25 0.56 0.47 0.78 0.04 0.05 0.09 0.08 0.13 0.12 0 0.01 0 0.01 0.01 0.01 0.03 0.03 0.06 0.04 0.09 0.07 0.06 0.05 0.11 0.09 0.17 0.14 0.55 0.38 1.21 0.34 1.21 0.34l2.06-0.18-0.26-0.27v0zM14.85 3.63c0-0.02-0.02-0.05-0.05-0.04L14.8 3.59c0 0 0 0 0 0L1.64 4.5c-0.05 0-0.08 0.06-0.05 0.1l5.66 6.08c0.02 0.02 0.06 0.03 0.09 0L14.83 3.69a0.05 0.05 0 0 0 0.02-0.06z"></path>
        </g>
        <g id="SvgjsG7926">
            <use xlink:href="#SvgjsG7917" transform="translate(0, 0) scale(2)" fill="rgba(195, 195, 195, 0.55)"></use>
            <use xlink:href="#SvgjsG7918" transform="translate(0, 78) scale(2)" fill="rgba(195, 195, 195, 0.55)"></use>
            <use xlink:href="#SvgjsG7919" transform="translate(0, 156) scale(2)" fill="rgba(195, 195, 195, 0.55)"></use>
            <use xlink:href="#SvgjsG7920" transform="translate(0, 234) scale(2)" fill="rgba(195, 195, 195, 0.55)"></use>
            <use xlink:href="#SvgjsG7921" transform="translate(0, 312) scale(2)" fill="rgba(195, 195, 195, 0.55)"></use>
            <use xlink:href="#SvgjsG7922" transform="translate(0, 390) scale(2)" fill="rgba(195, 195, 195, 0.55)"></use>
            <use xlink:href="#SvgjsG7923" transform="translate(0, 468) scale(2)" fill="rgba(195, 195, 195, 0.55)"></use>
            <use xlink:href="#SvgjsG7924" transform="translate(0, 546) scale(2)" fill="rgba(195, 195, 195, 0.55)"></use>
            <use xlink:href="#SvgjsG7918" transform="translate(78, 0) scale(2)" fill="rgba(195, 195, 195, 0.55)"></use>
            <use xlink:href="#SvgjsG7919" transform="translate(78, 78) scale(2)" fill="rgba(195, 195, 195, 0.55)"></use>
            <use xlink:href="#SvgjsG7920" transform="translate(78, 156) scale(2)" fill="rgba(195, 195, 195, 0.55)"></use>
            <use xlink:href="#SvgjsG7921" transform="translate(78, 234) scale(2)" fill="rgba(195, 195, 195, 0.55)"></use>
            <use xlink:href="#SvgjsG7922" transform="translate(78, 312) scale(2)" fill="rgba(195, 195, 195, 0.55)"></use>
            <use xlink:href="#SvgjsG7923" transform="translate(78, 390) scale(2)" fill="rgba(195, 195, 195, 0.55)"></use>
            <use xlink:href="#SvgjsG7924" transform="translate(78, 468) scale(2)" fill="rgba(195, 195, 195, 0.55)"></use>
            <use xlink:href="#SvgjsG7925" transform="translate(78, 546) scale(2)" fill="rgba(195, 195, 195, 0.55)"></use>
            <use xlink:href="#SvgjsG7919" transform="translate(156, 0) scale(2)" fill="rgba(195, 195, 195, 0.55)"></use>
            <use xlink:href="#SvgjsG7920" transform="translate(156, 78) scale(2)" fill="rgba(195, 195, 195, 0.55)"></use>
            <use xlink:href="#SvgjsG7921" transform="translate(156, 156) scale(2)" fill="rgba(195, 195, 195, 0.55)"></use>
            <use xlink:href="#SvgjsG7922" transform="translate(156, 234) scale(2)" fill="rgba(195, 195, 195, 0.55)"></use>
            <use xlink:href="#SvgjsG7923" transform="translate(156, 312) scale(2)" fill="rgba(195, 195, 195, 0.55)"></use>
            <use xlink:href="#SvgjsG7924" transform="translate(156, 390) scale(2)" fill="rgba(195, 195, 195, 0.55)"></use>
            <use xlink:href="#SvgjsG7925" transform="translate(156, 468) scale(2)" fill="rgba(195, 195, 195, 0.55)"></use>
            <use xlink:href="#SvgjsG7917" transform="translate(156, 546) scale(2)" fill="rgba(195, 195, 195, 0.55)"></use>
            <use xlink:href="#SvgjsG7920" transform="translate(234, 0) scale(2)" fill="rgba(195, 195, 195, 0.55)"></use>
            <use xlink:href="#SvgjsG7921" transform="translate(234, 78) scale(2)" fill="rgba(195, 195, 195, 0.55)"></use>
            <use xlink:href="#SvgjsG7922" transform="translate(234, 156) scale(2)" fill="rgba(195, 195, 195, 0.55)"></use>
            <use xlink:href="#SvgjsG7923" transform="translate(234, 234) scale(2)" fill="rgba(195, 195, 195, 0.55)"></use>
            <use xlink:href="#SvgjsG7924" transform="translate(234, 312) scale(2)" fill="rgba(195, 195, 195, 0.55)"></use>
            <use xlink:href="#SvgjsG7925" transform="translate(234, 390) scale(2)" fill="rgba(195, 195, 195, 0.55)"></use>
            <use xlink:href="#SvgjsG7917" transform="translate(234, 468) scale(2)" fill="rgba(195, 195, 195, 0.55)"></use>
            <use xlink:href="#SvgjsG7918" transform="translate(234, 546) scale(2)" fill="rgba(195, 195, 195, 0.55)"></use>
            <use xlink:href="#SvgjsG7921" transform="translate(312, 0) scale(2)" fill="rgba(195, 195, 195, 0.55)"></use>
            <use xlink:href="#SvgjsG7922" transform="translate(312, 78) scale(2)" fill="rgba(195, 195, 195, 0.55)"></use>
            <use xlink:href="#SvgjsG7923" transform="translate(312, 156) scale(2)" fill="rgba(195, 195, 195, 0.55)"></use>
            <use xlink:href="#SvgjsG7924" transform="translate(312, 234) scale(2)" fill="rgba(195, 195, 195, 0.55)"></use>
            <use xlink:href="#SvgjsG7925" transform="translate(312, 312) scale(2)" fill="rgba(195, 195, 195, 0.55)"></use>
            <use xlink:href="#SvgjsG7917" transform="translate(312, 390) scale(2)" fill="rgba(195, 195, 195, 0.55)"></use>
            <use xlink:href="#SvgjsG7918" transform="translate(312, 468) scale(2)" fill="rgba(195, 195, 195, 0.55)"></use>
            <use xlink:href="#SvgjsG7919" transform="translate(312, 546) scale(2)" fill="rgba(195, 195, 195, 0.55)"></use>
            <use xlink:href="#SvgjsG7922" transform="translate(390, 0) scale(2)" fill="rgba(195, 195, 195, 0.55)"></use>
            <use xlink:href="#SvgjsG7923" transform="translate(390, 78) scale(2)" fill="rgba(195, 195, 195, 0.55)"></use>
            <use xlink:href="#SvgjsG7924" transform="translate(390, 156) scale(2)" fill="rgba(195, 195, 195, 0.55)"></use>
            <use xlink:href="#SvgjsG7925" transform="translate(390, 234) scale(2)" fill="rgba(195, 195, 195, 0.55)"></use>
            <use xlink:href="#SvgjsG7917" transform="translate(390, 312) scale(2)" fill="rgba(195, 195, 195, 0.55)"></use>
            <use xlink:href="#SvgjsG7918" transform="translate(390, 390) scale(2)" fill="rgba(195, 195, 195, 0.55)"></use>
            <use xlink:href="#SvgjsG7919" transform="translate(390, 468) scale(2)" fill="rgba(195, 195, 195, 0.55)"></use>
            <use xlink:href="#SvgjsG7920" transform="translate(390, 546) scale(2)" fill="rgba(195, 195, 195, 0.55)"></use>
            <use xlink:href="#SvgjsG7923" transform="translate(468, 0) scale(2)" fill="rgba(195, 195, 195, 0.55)"></use>
            <use xlink:href="#SvgjsG7924" transform="translate(468, 78) scale(2)" fill="rgba(195, 195, 195, 0.55)"></use>
            <use xlink:href="#SvgjsG7925" transform="translate(468, 156) scale(2)" fill="rgba(195, 195, 195, 0.55)"></use>
            <use xlink:href="#SvgjsG7917" transform="translate(468, 234) scale(2)" fill="rgba(195, 195, 195, 0.55)"></use>
            <use xlink:href="#SvgjsG7918" transform="translate(468, 312) scale(2)" fill="rgba(195, 195, 195, 0.55)"></use>
            <use xlink:href="#SvgjsG7919" transform="translate(468, 390) scale(2)" fill="rgba(195, 195, 195, 0.55)"></use>
            <use xlink:href="#SvgjsG7920" transform="translate(468, 468) scale(2)" fill="rgba(195, 195, 195, 0.55)"></use>
            <use xlink:href="#SvgjsG7921" transform="translate(468, 546) scale(2)" fill="rgba(195, 195, 195, 0.55)"></use>
            <use xlink:href="#SvgjsG7924" transform="translate(546, 0) scale(2)" fill="rgba(195, 195, 195, 0.55)"></use>
            <use xlink:href="#SvgjsG7925" transform="translate(546, 78) scale(2)" fill="rgba(195, 195, 195, 0.55)"></use>
            <use xlink:href="#SvgjsG7917" transform="translate(546, 156) scale(2)" fill="rgba(195, 195, 195, 0.55)"></use>
            <use xlink:href="#SvgjsG7918" transform="translate(546, 234) scale(2)" fill="rgba(195, 195, 195, 0.55)"></use>
            <use xlink:href="#SvgjsG7919" transform="translate(546, 312) scale(2)" fill="rgba(195, 195, 195, 0.55)"></use>
            <use xlink:href="#SvgjsG7920" transform="translate(546, 390) scale(2)" fill="rgba(195, 195, 195, 0.55)"></use>
            <use xlink:href="#SvgjsG7921" transform="translate(546, 468) scale(2)" fill="rgba(195, 195, 195, 0.55)"></use>
            <use xlink:href="#SvgjsG7922" transform="translate(546, 546) scale(2)" fill="rgba(195, 195, 195, 0.55)"></use>
            <use xlink:href="#SvgjsG7925" transform="translate(624, 0) scale(2)" fill="rgba(195, 195, 195, 0.55)"></use>
            <use xlink:href="#SvgjsG7917" transform="translate(624, 78) scale(2)" fill="rgba(195, 195, 195, 0.55)"></use>
            <use xlink:href="#SvgjsG7918" transform="translate(624, 156) scale(2)" fill="rgba(195, 195, 195, 0.55)"></use>
            <use xlink:href="#SvgjsG7919" transform="translate(624, 234) scale(2)" fill="rgba(195, 195, 195, 0.55)"></use>
            <use xlink:href="#SvgjsG7920" transform="translate(624, 312) scale(2)" fill="rgba(195, 195, 195, 0.55)"></use>
            <use xlink:href="#SvgjsG7921" transform="translate(624, 390) scale(2)" fill="rgba(195, 195, 195, 0.55)"></use>
            <use xlink:href="#SvgjsG7922" transform="translate(624, 468) scale(2)" fill="rgba(195, 195, 195, 0.55)"></use>
            <use xlink:href="#SvgjsG7923" transform="translate(624, 546) scale(2)" fill="rgba(195, 195, 195, 0.55)"></use>
            <use xlink:href="#SvgjsG7917" transform="translate(702, 0) scale(2)" fill="rgba(195, 195, 195, 0.55)"></use>
            <use xlink:href="#SvgjsG7918" transform="translate(702, 78) scale(2)" fill="rgba(195, 195, 195, 0.55)"></use>
            <use xlink:href="#SvgjsG7919" transform="translate(702, 156) scale(2)" fill="rgba(195, 195, 195, 0.55)"></use>
            <use xlink:href="#SvgjsG7920" transform="translate(702, 234) scale(2)" fill="rgba(195, 195, 195, 0.55)"></use>
            <use xlink:href="#SvgjsG7921" transform="translate(702, 312) scale(2)" fill="rgba(195, 195, 195, 0.55)"></use>
            <use xlink:href="#SvgjsG7922" transform="translate(702, 390) scale(2)" fill="rgba(195, 195, 195, 0.55)"></use>
            <use xlink:href="#SvgjsG7923" transform="translate(702, 468) scale(2)" fill="rgba(195, 195, 195, 0.55)"></use>
            <use xlink:href="#SvgjsG7924" transform="translate(702, 546) scale(2)" fill="rgba(195, 195, 195, 0.55)"></use>
        </g>
    </defs>
</svg>