<svg xmlns="http://www.w3.org/2000/svg" version="1.1" xmlns:xlink="http://www.w3.org/1999/xlink" xmlns:svgjs="http://svgjs.com/svgjs" width="1440" height="560" preserveAspectRatio="none" viewBox="0 0 1440 560"><g mask="url(&quot;#SvgjsMask1372&quot;)" fill="none"><use xlink:href="#SvgjsG1382" transform="translate(0, 0)" fill="rgba(230, 230, 230, 1)"></use><use xlink:href="#SvgjsG1382" transform="translate(600, 0)" fill="rgba(230, 230, 230, 1)"></use><use xlink:href="#SvgjsG1382" transform="translate(1200, 0)" fill="rgba(230, 230, 230, 1)"></use></g><defs><mask id="SvgjsMask1372"><rect width="1440" height="560" fill="#ffffff"></rect></mask><g id="SvgjsG1379"><path d="M2.524 8.637H0.014V7.308h2.51v1.329zM3.656 4.576L1.884 2.804l0.935-0.935 1.772 1.772-0.935 0.935z m0 6.817l0.935 0.935-1.772 1.773-0.934-0.936 1.771-1.772z m4.997-8.884h-1.33V-0.002h1.33v2.511z m-1.33 10.952h1.33v2.51h-1.33v-2.509zM12.344 4.576l-0.96-0.935 1.796-1.772 0.935 0.935-1.772 1.772z m0 6.792l1.771 1.797-0.935 0.936-1.771-1.774 0.936-0.96z m3.643-4.06v1.329h-2.51V7.308h2.509z"></path><path d="M3.702 7.984a4.184 4.184 0 1 0 8.368 0 4.184 4.184 0 1 0-8.368 0"></path></g><g id="SvgjsG1376"><path d="M15.964 4.774l-1.312 10.327H10.223L8.916 4.774h5.408L15.395 1.04 16 1.21l-1.024 3.562 0.988 0.002zM8.29 10.788s0.166-1.502-2.131-1.502H2.5c-2.293 0-2.131 1.502-2.132 1.502h7.922zM0.368 13.595s-0.162 1.506 2.132 1.506h3.659c2.297 0 2.131-1.506 2.131-1.506H0.369z m7.578-0.727a0.68 0.68 0 0 0 0.68-0.68c0-0.372-0.304-0.676-0.68-0.676H0.68C0.306 11.512 0 11.816 0 12.188a0.682 0.682 0 0 0 0.68 0.68h7.266z"></path></g><g id="SvgjsG1374"><path d="M7.741 5.269c-0.003 0.523-0.481 1.084-1.101 1.084v8.856c0 1.261-1.714 1.261-1.716 0V6.354c-0.602 0-1.127-0.465-1.126-1.159V0.315c-0.001-0.423 0.612-0.44 0.616 0.017v3.606h0.51V0.299c0-0.389 0.59-0.414 0.591 0.016v3.623h0.526V0.307C6.044-0.103 6.618-0.12 6.616 0.323v3.615h0.526V0.307c-0.002-0.406 0.597-0.423 0.599 0.016v4.946zM12.309 1.449v13.76c0.002 1.229-1.715 1.211-1.717 0V9.746h-0.912V1.449c-0.001-1.932 2.631-1.932 2.629 0z"></path></g><g id="SvgjsG1381"><path d="M15.065 12.151H0.02c0 1.333 1.015 1.95 1.83 1.95h11.386c0.975 0 1.83-0.767 1.829-1.951zM12.853 2.166H1.869v7.208c0 0.976 0.843 1.75 1.755 1.75h7.121c1.031 0 1.731-0.863 1.731-1.749V8.773c2.031 0 3.505-1.527 3.505-3.303 0-1.815-1.445-3.303-3.126-3.303z m1.832 3.305c0 1.036-0.763 2.025-2.21 1.931V3.519l0.378 0 0 0.001c1.391 0 1.837 1.318 1.832 1.952v-0.001z"></path></g><g id="SvgjsG1380"><path d="M12.049 4.244l-1.49 11.735H5.527L4.041 4.244h6.146L11.403 0 12.091 0.193l-1.164 4.048 1.122 0.003z" fill-rule="evenodd"></path></g><g id="SvgjsG1375"><path d="M11.406 2.678H4.629C0.382 2.678 0.682 5.459 0.682 5.459h14.67S15.66 2.678 11.406 2.678zM4.629 13.447h6.777c4.254 0 3.947-2.789 3.946-2.789H0.682s-0.3 2.789 3.947 2.789z m10.087-4.135a1.259 1.259 0 0 0 1.259-1.259c0-0.69-0.562-1.252-1.259-1.252H1.259C0.566 6.801 0 7.363 0 8.052a1.262 1.262 0 0 0 1.259 1.26h13.457z" fill-rule="evenodd"></path></g><g id="SvgjsG1377"><path d="M3.898 0s0.232 4.58 4.246 4.192S8.597 0.364 3.898 0m4.203 14.894a2.324 2.324 0 0 1-1.902 0.977c-0.64 0-1.267-0.3-1.689-0.721-0.864-0.943-1.985-3.051-1.986-3.052C1.897 10.822 1.56 9.837 1.56 8.839c0-2.126 1.72-3.968 3.848-3.968 1.05 0 1.996 0.42 2.692 1.099a3.835 3.835 0 0 1 2.69-1.099c2.129 0 3.848 1.842 3.849 3.967 0 0.997-0.334 1.983-0.964 3.259 0 0-1.12 2.108-1.984 3.051-0.423 0.422-1.049 0.722-1.689 0.722a2.321 2.321 0 0 1-1.899-0.977" fill-rule="evenodd"></path></g><g id="SvgjsG1373"><path d="M12.872 14.056H9.025v-5.485L15.968 0H0l7.07 8.528v5.528h-3.773c-1.304 0.003-1.304 1.944 0 1.944H12.872c1.296 0 1.285-1.942 0-1.944zM8.021 4.809c-0.001-0.682 0.553-1.236 1.237-1.237 0.684 0 1.239 0.555 1.236 1.237 0.003 0.687-0.552 1.241-1.236 1.236-0.684 0.004-1.238-0.55-1.237-1.236z"></path></g><g id="SvgjsG1378"><path d="M15.301 16c-0.316 0-0.624-0.074-0.897-0.199a2.16 2.16 0 0 0-0.924-0.209c-0.328 0-0.643 0.077-0.923 0.21-0.277 0.124-0.581 0.198-0.901 0.198-0.316 0-0.625-0.074-0.896-0.198a2.171 2.171 0 0 0-0.927-0.21c-0.326 0-0.643 0.077-0.922 0.21-0.276 0.124-0.581 0.199-0.901 0.198-0.32 0-0.624-0.074-0.897-0.198a2.171 2.171 0 0 0-0.924-0.209c-0.33 0-0.646 0.077-0.925 0.209a2.176 2.176 0 0 1-0.899 0.198c-0.317 0-0.624-0.074-0.899-0.198a2.17 2.17 0 0 0-0.924-0.21c-0.328 0-0.644 0.077-0.924 0.21C1.344 15.926 1.04 16 0.72 16v-1.363a2.155 2.155 0 0 0 0.898-0.198 2.232 2.232 0 0 1 0.924-0.204c0.329 0 0.644 0.076 0.924 0.204a2.164 2.164 0 0 0 0.899 0.198c0.319 0 0.626-0.073 0.899-0.198a2.224 2.224 0 0 1 0.925-0.204c0.328 0 0.645 0.076 0.924 0.204a2.146 2.146 0 0 0 0.898 0.198c0.319 0 0.625-0.073 0.9-0.198a2.224 2.224 0 0 1 0.922-0.204c0.33 0 0.646 0.076 0.926 0.204 0.272 0.125 0.581 0.199 0.897 0.198 0.319 0 0.624-0.073 0.901-0.198a2.218 2.218 0 0 1 0.922-0.204c0.33 0 0.646 0.076 0.925 0.204a2.159 2.159 0 0 0 0.897 0.198V16zM10.237 2.425c2.443 1.148 5.344 4.21 4.963 7.885H10.237V2.425zM14.151 11.051h-11.044v2.027c0.124 0.033 0.248 0.069 0.36 0.124 0.274 0.121 0.581 0.195 0.898 0.195 0.32 0 0.626-0.075 0.899-0.195a2.17 2.17 0 0 1 0.925-0.209c0.328 0 0.645 0.077 0.925 0.209 0.273 0.121 0.578 0.195 0.897 0.195 0.319 0 0.624-0.075 0.9-0.195a2.176 2.176 0 0 1 0.922-0.209c0.33 0 0.646 0.077 0.927 0.209 0.272 0.121 0.581 0.195 0.896 0.195 0.062 0 0.12-0.016 0.178-0.022 0.007 0 0.007 0.007 0.014 0.007 0.04 0 0.07-0.018 0.11-0.018 0.073-0.01 0.145-0.019 0.218-0.036 0.653-0.137 1.075-0.651 1.075-0.651l1.27-1.625h-0.37v0zM9.477 0.011c-0.02-0.014-0.047-0.017-0.068 0.007L9.408 0.019c0 0-0.001 0-0.001 0.001L1.104 10.268c-0.031 0.038-0.014 0.102 0.042 0.102h8.303c0.033 0 0.06-0.027 0.06-0.06V0.062a0.053 0.053 0 0 0-0.032-0.051z"></path></g><g id="SvgjsG1382"><use xlink:href="#SvgjsG1373" transform="translate(0, 0) scale(2)" fill="rgba(230, 230, 230, 1)"></use><use xlink:href="#SvgjsG1374" transform="translate(0, 60) scale(2)" fill="rgba(230, 230, 230, 1)"></use><use xlink:href="#SvgjsG1375" transform="translate(0, 120) scale(2)" fill="rgba(230, 230, 230, 1)"></use><use xlink:href="#SvgjsG1376" transform="translate(0, 180) scale(2)" fill="rgba(230, 230, 230, 1)"></use><use xlink:href="#SvgjsG1377" transform="translate(0, 240) scale(2)" fill="rgba(230, 230, 230, 1)"></use><use xlink:href="#SvgjsG1375" transform="translate(0, 300) scale(2)" fill="rgba(230, 230, 230, 1)"></use><use xlink:href="#SvgjsG1376" transform="translate(0, 360) scale(2)" fill="rgba(230, 230, 230, 1)"></use><use xlink:href="#SvgjsG1377" transform="translate(0, 420) scale(2)" fill="rgba(230, 230, 230, 1)"></use><use xlink:href="#SvgjsG1378" transform="translate(0, 480) scale(2)" fill="rgba(230, 230, 230, 1)"></use><use xlink:href="#SvgjsG1379" transform="translate(0, 540) scale(2)" fill="rgba(230, 230, 230, 1)"></use><use xlink:href="#SvgjsG1375" transform="translate(60, 0) scale(2)" fill="rgba(230, 230, 230, 1)"></use><use xlink:href="#SvgjsG1379" transform="translate(60, 60) scale(2)" fill="rgba(230, 230, 230, 1)"></use><use xlink:href="#SvgjsG1379" transform="translate(60, 120) scale(2)" fill="rgba(230, 230, 230, 1)"></use><use xlink:href="#SvgjsG1378" transform="translate(60, 180) scale(2)" fill="rgba(230, 230, 230, 1)"></use><use xlink:href="#SvgjsG1374" transform="translate(60, 240) scale(2)" fill="rgba(230, 230, 230, 1)"></use><use xlink:href="#SvgjsG1380" transform="translate(60, 300) scale(2)" fill="rgba(230, 230, 230, 1)"></use><use xlink:href="#SvgjsG1376" transform="translate(60, 360) scale(2)" fill="rgba(230, 230, 230, 1)"></use><use xlink:href="#SvgjsG1377" transform="translate(60, 420) scale(2)" fill="rgba(230, 230, 230, 1)"></use><use xlink:href="#SvgjsG1379" transform="translate(60, 480) scale(2)" fill="rgba(230, 230, 230, 1)"></use><use xlink:href="#SvgjsG1377" transform="translate(60, 540) scale(2)" fill="rgba(230, 230, 230, 1)"></use><use xlink:href="#SvgjsG1377" transform="translate(120, 0) scale(2)" fill="rgba(230, 230, 230, 1)"></use><use xlink:href="#SvgjsG1378" transform="translate(120, 60) scale(2)" fill="rgba(230, 230, 230, 1)"></use><use xlink:href="#SvgjsG1378" transform="translate(120, 120) scale(2)" fill="rgba(230, 230, 230, 1)"></use><use xlink:href="#SvgjsG1374" transform="translate(120, 180) scale(2)" fill="rgba(230, 230, 230, 1)"></use><use xlink:href="#SvgjsG1376" transform="translate(120, 240) scale(2)" fill="rgba(230, 230, 230, 1)"></use><use xlink:href="#SvgjsG1374" transform="translate(120, 300) scale(2)" fill="rgba(230, 230, 230, 1)"></use><use xlink:href="#SvgjsG1378" transform="translate(120, 360) scale(2)" fill="rgba(230, 230, 230, 1)"></use><use xlink:href="#SvgjsG1376" transform="translate(120, 420) scale(2)" fill="rgba(230, 230, 230, 1)"></use><use xlink:href="#SvgjsG1373" transform="translate(120, 480) scale(2)" fill="rgba(230, 230, 230, 1)"></use><use xlink:href="#SvgjsG1374" transform="translate(120, 540) scale(2)" fill="rgba(230, 230, 230, 1)"></use><use xlink:href="#SvgjsG1377" transform="translate(180, 0) scale(2)" fill="rgba(230, 230, 230, 1)"></use><use xlink:href="#SvgjsG1373" transform="translate(180, 60) scale(2)" fill="rgba(230, 230, 230, 1)"></use><use xlink:href="#SvgjsG1376" transform="translate(180, 120) scale(2)" fill="rgba(230, 230, 230, 1)"></use><use xlink:href="#SvgjsG1374" transform="translate(180, 180) scale(2)" fill="rgba(230, 230, 230, 1)"></use><use xlink:href="#SvgjsG1381" transform="translate(180, 240) scale(2)" fill="rgba(230, 230, 230, 1)"></use><use xlink:href="#SvgjsG1376" transform="translate(180, 300) scale(2)" fill="rgba(230, 230, 230, 1)"></use><use xlink:href="#SvgjsG1380" transform="translate(180, 360) scale(2)" fill="rgba(230, 230, 230, 1)"></use><use xlink:href="#SvgjsG1373" transform="translate(180, 420) scale(2)" fill="rgba(230, 230, 230, 1)"></use><use xlink:href="#SvgjsG1373" transform="translate(180, 480) scale(2)" fill="rgba(230, 230, 230, 1)"></use><use xlink:href="#SvgjsG1381" transform="translate(180, 540) scale(2)" fill="rgba(230, 230, 230, 1)"></use><use xlink:href="#SvgjsG1380" transform="translate(240, 0) scale(2)" fill="rgba(230, 230, 230, 1)"></use><use xlink:href="#SvgjsG1380" transform="translate(240, 60) scale(2)" fill="rgba(230, 230, 230, 1)"></use><use xlink:href="#SvgjsG1376" transform="translate(240, 120) scale(2)" fill="rgba(230, 230, 230, 1)"></use><use xlink:href="#SvgjsG1381" transform="translate(240, 180) scale(2)" fill="rgba(230, 230, 230, 1)"></use><use xlink:href="#SvgjsG1381" transform="translate(240, 240) scale(2)" fill="rgba(230, 230, 230, 1)"></use><use xlink:href="#SvgjsG1376" transform="translate(240, 300) scale(2)" fill="rgba(230, 230, 230, 1)"></use><use xlink:href="#SvgjsG1378" transform="translate(240, 360) scale(2)" fill="rgba(230, 230, 230, 1)"></use><use xlink:href="#SvgjsG1378" transform="translate(240, 420) scale(2)" fill="rgba(230, 230, 230, 1)"></use><use xlink:href="#SvgjsG1381" transform="translate(240, 480) scale(2)" fill="rgba(230, 230, 230, 1)"></use><use xlink:href="#SvgjsG1373" transform="translate(240, 540) scale(2)" fill="rgba(230, 230, 230, 1)"></use><use xlink:href="#SvgjsG1381" transform="translate(300, 0) scale(2)" fill="rgba(230, 230, 230, 1)"></use><use xlink:href="#SvgjsG1379" transform="translate(300, 60) scale(2)" fill="rgba(230, 230, 230, 1)"></use><use xlink:href="#SvgjsG1378" transform="translate(300, 120) scale(2)" fill="rgba(230, 230, 230, 1)"></use><use xlink:href="#SvgjsG1377" transform="translate(300, 180) scale(2)" fill="rgba(230, 230, 230, 1)"></use><use xlink:href="#SvgjsG1375" transform="translate(300, 240) scale(2)" fill="rgba(230, 230, 230, 1)"></use><use xlink:href="#SvgjsG1375" transform="translate(300, 300) scale(2)" fill="rgba(230, 230, 230, 1)"></use><use xlink:href="#SvgjsG1381" transform="translate(300, 360) scale(2)" fill="rgba(230, 230, 230, 1)"></use><use xlink:href="#SvgjsG1379" transform="translate(300, 420) scale(2)" fill="rgba(230, 230, 230, 1)"></use><use xlink:href="#SvgjsG1378" transform="translate(300, 480) scale(2)" fill="rgba(230, 230, 230, 1)"></use><use xlink:href="#SvgjsG1373" transform="translate(300, 540) scale(2)" fill="rgba(230, 230, 230, 1)"></use><use xlink:href="#SvgjsG1379" transform="translate(360, 0) scale(2)" fill="rgba(230, 230, 230, 1)"></use><use xlink:href="#SvgjsG1373" transform="translate(360, 60) scale(2)" fill="rgba(230, 230, 230, 1)"></use><use xlink:href="#SvgjsG1373" transform="translate(360, 120) scale(2)" fill="rgba(230, 230, 230, 1)"></use><use xlink:href="#SvgjsG1375" transform="translate(360, 180) scale(2)" fill="rgba(230, 230, 230, 1)"></use><use xlink:href="#SvgjsG1378" transform="translate(360, 240) scale(2)" fill="rgba(230, 230, 230, 1)"></use><use xlink:href="#SvgjsG1380" transform="translate(360, 300) scale(2)" fill="rgba(230, 230, 230, 1)"></use><use xlink:href="#SvgjsG1379" transform="translate(360, 360) scale(2)" fill="rgba(230, 230, 230, 1)"></use><use xlink:href="#SvgjsG1376" transform="translate(360, 420) scale(2)" fill="rgba(230, 230, 230, 1)"></use><use xlink:href="#SvgjsG1376" transform="translate(360, 480) scale(2)" fill="rgba(230, 230, 230, 1)"></use><use xlink:href="#SvgjsG1376" transform="translate(360, 540) scale(2)" fill="rgba(230, 230, 230, 1)"></use><use xlink:href="#SvgjsG1381" transform="translate(420, 0) scale(2)" fill="rgba(230, 230, 230, 1)"></use><use xlink:href="#SvgjsG1376" transform="translate(420, 60) scale(2)" fill="rgba(230, 230, 230, 1)"></use><use xlink:href="#SvgjsG1378" transform="translate(420, 120) scale(2)" fill="rgba(230, 230, 230, 1)"></use><use xlink:href="#SvgjsG1378" transform="translate(420, 180) scale(2)" fill="rgba(230, 230, 230, 1)"></use><use xlink:href="#SvgjsG1374" transform="translate(420, 240) scale(2)" fill="rgba(230, 230, 230, 1)"></use><use xlink:href="#SvgjsG1376" transform="translate(420, 300) scale(2)" fill="rgba(230, 230, 230, 1)"></use><use xlink:href="#SvgjsG1378" transform="translate(420, 360) scale(2)" fill="rgba(230, 230, 230, 1)"></use><use xlink:href="#SvgjsG1379" transform="translate(420, 420) scale(2)" fill="rgba(230, 230, 230, 1)"></use><use xlink:href="#SvgjsG1375" transform="translate(420, 480) scale(2)" fill="rgba(230, 230, 230, 1)"></use><use xlink:href="#SvgjsG1381" transform="translate(420, 540) scale(2)" fill="rgba(230, 230, 230, 1)"></use><use xlink:href="#SvgjsG1377" transform="translate(480, 0) scale(2)" fill="rgba(230, 230, 230, 1)"></use><use xlink:href="#SvgjsG1379" transform="translate(480, 60) scale(2)" fill="rgba(230, 230, 230, 1)"></use><use xlink:href="#SvgjsG1374" transform="translate(480, 120) scale(2)" fill="rgba(230, 230, 230, 1)"></use><use xlink:href="#SvgjsG1381" transform="translate(480, 180) scale(2)" fill="rgba(230, 230, 230, 1)"></use><use xlink:href="#SvgjsG1380" transform="translate(480, 240) scale(2)" fill="rgba(230, 230, 230, 1)"></use><use xlink:href="#SvgjsG1380" transform="translate(480, 300) scale(2)" fill="rgba(230, 230, 230, 1)"></use><use xlink:href="#SvgjsG1373" transform="translate(480, 360) scale(2)" fill="rgba(230, 230, 230, 1)"></use><use xlink:href="#SvgjsG1381" transform="translate(480, 420) scale(2)" fill="rgba(230, 230, 230, 1)"></use><use xlink:href="#SvgjsG1376" transform="translate(480, 480) scale(2)" fill="rgba(230, 230, 230, 1)"></use><use xlink:href="#SvgjsG1376" transform="translate(480, 540) scale(2)" fill="rgba(230, 230, 230, 1)"></use><use xlink:href="#SvgjsG1381" transform="translate(540, 0) scale(2)" fill="rgba(230, 230, 230, 1)"></use><use xlink:href="#SvgjsG1376" transform="translate(540, 60) scale(2)" fill="rgba(230, 230, 230, 1)"></use><use xlink:href="#SvgjsG1381" transform="translate(540, 120) scale(2)" fill="rgba(230, 230, 230, 1)"></use><use xlink:href="#SvgjsG1379" transform="translate(540, 180) scale(2)" fill="rgba(230, 230, 230, 1)"></use><use xlink:href="#SvgjsG1374" transform="translate(540, 240) scale(2)" fill="rgba(230, 230, 230, 1)"></use><use xlink:href="#SvgjsG1378" transform="translate(540, 300) scale(2)" fill="rgba(230, 230, 230, 1)"></use><use xlink:href="#SvgjsG1378" transform="translate(540, 360) scale(2)" fill="rgba(230, 230, 230, 1)"></use><use xlink:href="#SvgjsG1374" transform="translate(540, 420) scale(2)" fill="rgba(230, 230, 230, 1)"></use><use xlink:href="#SvgjsG1374" transform="translate(540, 480) scale(2)" fill="rgba(230, 230, 230, 1)"></use><use xlink:href="#SvgjsG1378" transform="translate(540, 540) scale(2)" fill="rgba(230, 230, 230, 1)"></use></g></defs></svg>